<svg xmlns="http://www.w3.org/2000/svg" width="9" height="11" viewBox="0 0 15 18"><g><g><path fill="#8fb91c" d="M14.985 15.34c-.022.267-.156.477-.401.628l-2.871 1.762c-.132.092-.293.16-.484.204-.19.045-.37.061-.542.05a2.708 2.708 0 0 0-.109-.012 2.401 2.401 0 0 1-.233-.039c-.227-.045-.584-.156-1.073-.33-.49-.175-1.067-.481-1.734-.917-.668-.435-1.4-1.035-2.2-1.798-.8-.763-1.61-1.754-2.432-2.97-.66-.949-1.183-1.834-1.571-2.656a15.813 15.813 0 0 1-.88-2.242 10.425 10.425 0 0 1-.383-1.796 8.497 8.497 0 0 1-.056-1.341c.02-.369.059-.653.116-.854.057-.201.088-.313.093-.336.06-.154.149-.304.268-.451.12-.148.25-.26.392-.338L3.76.125a.838.838 0 0 1 .624-.123.69.69 0 0 1 .382.21c.1.109.178.234.233.375l1.142 3.828a.807.807 0 0 1-.043.612 1.097 1.097 0 0 1-.424.481l-1.059.656a.293.293 0 0 0-.087.098.422.422 0 0 0-.055.121c-.005.248.041.54.14.88.082.3.228.674.439 1.124.21.45.532.985.966 1.604.42.628.805 1.128 1.157 1.5.352.372.653.654.902.846.25.192.445.317.588.375l.213.088A.462.462 0 0 0 9 12.797a.318.318 0 0 0 .129-.035l1.236-.78a1.17 1.17 0 0 1 .81-.12c.202.04.355.106.458.198l.018.003 3.012 2.627c.217.198.325.414.322.65z"/></g></g></svg>